 <svg display="none" xmlns="http://www.w3.org/2000/svg">
    <symbol id="s1" viewBox="0 0 69.1 81.4">
    <g>
        <style type="text/css">
	        .st0{fill:#808080;}
        </style>
    <path class="st0" d="M46.6,36.9v-8.3l0-0.2c-0.4-3.5-3.4-10.2-12-10.2c-8.6,0-11.6,6.9-12,10.6l0,8.1h-6v24.6h36.9V36.9H46.6z
	 M26.5,29.1c0.1-1.1,1.3-6.9,8-6.9c6.8,0,7.9,5.5,8,6.5v8.2h-16V29.1z M37,51.1l1.4,3.1H32L33,51c-1.2-0.7-2.1-2.1-2.1-3.6
	c0-2.3,1.9-4.1,4.1-4.1s4.1,1.9,4.1,4.1C39.2,49,38.3,50.4,37,51.1L37,51.1z"/>
    </g>
    </symbol>
 </svg>